# xmcd CD database file generated by OrangeCD 5.2
#
# Track frame offsets:
#	150
#	12018
#	24077
#	38455
#	49131
#	74341
#	91243
#	106775
#	119867
#	133180
#	152347
#	165593
#	180099
#	199807
#	209658
#	226882
#	247525
#	262974
#	286097
#	305466
#	320348
#	332457
#
# Disc length: 4601 seconds
#
# Revision: 0
# Processed by: cddbd v1.5.1PL0 Copyright (c) Steve Scherf et al.
# Submitted via: OrangeCD 5.2
#
DISCID=1111f716
DTITLE=Various Artist - Country Songbirds
DYEAR=2004
DGENRE=Country
TTITLE0=Lucinda Williams - Passionate Kisses
TTITLE1=Dolly Parton - Jolene
TTITLE2=Alison Krauss And Union Station - The Lucky One
TTITLE3=Rhonda  Vincent - You're Running Wild
TTITLE4=Emmylou Harris - Until I Gain Control Again
TTITLE5=Oh Suzanna - Carrie Lee
TTITLE6=Gillian Welch - Wayside/Track In Time
TTITLE7=Joy Lynn White - Tonight The Heartache's On Me
TTITLE8=Tammy Wynette - Apartment No. 9
TTITLE9=Bobbie Gentry - Ode To Billie Joe
TTITLE10=Dusty Springfield - Breakfast In Bed
TTITLE11=Shelby Lynne - Leavin'
TTITLE12=Allison Moorer - Baby Dreamer
TTITLE13=Carlene Carter - Cry
TTITLE14=Mary Chapin Carpenter - This Shirt
TTITLE15=Trisha Yearwood - Woman Walk The Line
TTITLE16=Patty Loveless - You Can Feel Bad
TTITLE17=Tift Merritt - Trouble Over Me
TTITLE18=Kim Richey - Girl In A Car
TTITLE19=Roseanne Cash - Seven Year Ache
TTITLE20=Jean Shepherd - Twice The Lovin' (In Half The Time)
TTITLE21=June Carter Cash - Ring Of Fire
EXTD=
EXTT0=
EXTT1=
EXTT2=
EXTT3=
EXTT4=
EXTT5=
EXTT6=
EXTT7=
EXTT8=
EXTT9=
EXTT10=
EXTT11=
EXTT12=
EXTT13=
EXTT14=
EXTT15=
EXTT16=
EXTT17=
EXTT18=
EXTT19=
EXTT20=
EXTT21=
PLAYORDER=
